<svg width="375" height="634" viewBox="0 0 375 634" fill="none" xmlns="http://www.w3.org/2000/svg">
<g filter="url(#filter0_f_2003_377)">
<path d="M331 317C331 395.977 266.977 460 188 460C109.023 460 45 395.977 45 317C45 238.023 109.023 174 188 174C266.977 174 331 238.023 331 317Z" fill="url(#paint0_radial_2003_377)"/>
</g>
<circle cx="188" cy="317" r="104.5" stroke="url(#paint1_linear_2003_377)"/>
<circle cx="188" cy="317" r="118.5" stroke="url(#paint2_linear_2003_377)" stroke-opacity="0.4"/>
<circle cx="188" cy="317" r="132.5" stroke="url(#paint3_linear_2003_377)" stroke-opacity="0.1"/>
<path d="M189.282 298.932C190.277 298.827 190.784 299.293 190.053 300.131C183.821 301.324 177.95 304.409 173.677 309.105C172.682 310.198 171.301 311.737 171.154 313.243C170.965 315.195 171.848 317.256 173.659 318.147C174.246 318.437 175.642 318.521 175.754 319.067C176.169 321.09 172.471 319.105 171.797 318.506C169.032 316.042 169.253 312.48 171.371 309.7C175.067 304.849 183.153 299.579 189.282 298.932Z" fill="url(#paint4_linear_2003_377)"/>
<path d="M194.954 335.486C196.144 334.438 198.715 331.823 199.272 330.406C200.14 328.197 199.162 325.473 197.044 324.41C196.385 324.079 194.879 324.074 194.924 323.247C194.999 321.9 197.536 323.095 198.17 323.497C201.199 325.419 201.74 329.467 199.706 332.343C196.107 337.433 189.293 341.693 183.29 343.212C182.809 343.334 181.078 343.76 180.74 343.616C180.478 343.502 180.25 343.117 180.328 342.832C180.508 342.157 182.248 342.088 182.863 341.923C187.323 340.718 191.491 338.535 194.954 335.484V335.486Z" fill="url(#paint5_linear_2003_377)"/>
<path d="M203.779 296.997C204.114 297.351 203.888 298.17 203.326 298.161C193.153 295.441 182.042 297.921 174.186 304.896C173.524 305.223 172.933 304.647 173.249 303.955C173.416 303.588 175.384 302.151 175.844 301.826C182.942 296.803 191.658 294.754 200.284 296.144C200.81 296.228 203.549 296.756 203.777 296.999L203.779 296.997Z" fill="url(#paint6_linear_2003_377)"/>
<path d="M189.774 323.323C189.288 323.797 188.865 324.508 188.395 325.005C186.059 327.475 183.29 329.368 179.943 330.195C179.4 330.328 178.04 330.779 177.763 330.159C177.256 329.026 179.187 329.018 179.855 328.82C182.117 328.15 184.266 327.003 186.034 325.439C187.709 323.956 188.657 322.076 190.702 320.977C193.297 319.58 196.683 319.556 199.263 321.013C199.759 321.292 200.926 321.967 200.423 322.637C199.83 323.43 198.689 322.199 198.049 321.902C195.355 320.659 191.888 321.256 189.776 323.323H189.774Z" fill="url(#paint7_linear_2003_377)"/>
<path d="M193.903 306.454C194.361 306.437 194.857 306.293 195.216 306.688C195.534 307.038 195.441 307.472 195.042 307.698C194.698 307.891 193.072 307.863 192.489 307.938C187.458 308.596 182.908 310.982 179.477 314.691C178.777 315.447 178.285 316.469 177.318 316.936C176.121 317.513 174.519 317.361 173.517 316.465C173.023 316.025 172.557 314.981 173.464 314.899C174.171 314.834 174.45 315.709 175.208 315.848C177.124 316.201 177.481 314.824 178.564 313.668C182.467 309.502 188.133 306.671 193.905 306.452L193.903 306.454Z" fill="url(#paint8_linear_2003_377)"/>
<path d="M205.206 336.283L206.654 333.596C209.296 327.089 206.578 320.207 200.393 317.086C199.83 316.802 198.496 316.592 198.546 315.827C198.623 314.62 200.475 315.61 201.053 315.887C207.827 319.135 210.77 327.149 207.908 334.099C207.749 334.485 207.122 335.837 206.875 336.073C206.456 336.473 205.749 336.213 205.203 336.281L205.206 336.283Z" fill="url(#paint9_linear_2003_377)"/>
<path d="M176.216 334.795C176.296 334.666 178.238 334.601 178.605 334.552C183.22 333.914 187.944 331.445 191.08 328.014C191.996 327.013 192.468 325.873 193.867 325.43C195.055 325.054 196.481 325.318 197.366 326.236C197.865 326.751 197.981 327.697 197.094 327.694C196.546 327.694 196.172 326.796 195.349 326.642C193.875 326.365 193.564 327.267 192.797 328.12C189.347 331.961 185.106 334.709 179.963 335.695C179.409 335.8 176.375 336.286 176.137 335.965C176.102 335.918 176.184 334.844 176.214 334.792L176.216 334.795Z" fill="url(#paint10_linear_2003_377)"/>
<path d="M174.712 345.427C174.845 345.341 177.41 345.44 177.87 345.418C184.691 345.083 191.422 342.067 196.53 337.654C197.514 337.446 197.905 338.157 197.149 338.917C192.64 343.463 183.636 346.535 177.333 346.815C176.966 346.832 174.714 346.853 174.583 346.763C174.37 346.615 174.635 345.476 174.712 345.427Z" fill="url(#paint11_linear_2003_377)"/>
<path d="M203.485 292.565C201.882 292.404 200.31 291.965 198.705 291.815C193.834 291.355 188.399 291.903 183.746 293.396C182.94 293.654 181.211 294.524 180.543 294.599C179.587 294.705 179.284 293.798 180.137 293.332C183.462 291.51 189.976 290.447 193.768 290.311C195.353 290.255 200.9 290.416 202.131 291.076C202.353 291.194 203.717 292.343 203.487 292.565H203.485Z" fill="url(#paint12_linear_2003_377)"/>
<path d="M190.573 287.871C190.962 287.841 191.991 287.742 192.268 287.937C192.672 288.225 192.576 288.934 192.107 289.08C185.752 289.594 179.698 291.441 174.278 294.775C173.76 295.093 172.3 296.277 171.906 296.387C171.434 296.52 170.959 296.032 171.064 295.542C171.146 295.164 172.68 294.187 173.094 293.916C177.956 290.732 184.764 288.335 190.573 287.871Z" fill="url(#paint13_linear_2003_377)"/>
<path d="M173.088 320.923C174.725 321.249 176.282 321.441 177.924 320.979C180.785 320.171 181.907 317.681 183.993 315.876C185.712 314.39 188.171 313.086 190.358 312.467C191.069 312.265 193.411 311.453 192.939 313.006C192.81 313.429 191.179 313.631 190.704 313.78C188.517 314.461 186.455 315.528 184.74 317.054C182.706 318.86 181.748 321.017 178.994 322.049C177.958 322.437 175.043 323.041 174.156 322.379L173.09 320.923H173.088Z" fill="url(#paint14_linear_2003_377)"/>
<path d="M194.118 314.51C194.806 314.465 198.035 314.257 197.392 315.634C197.107 316.246 196.29 315.881 195.811 315.87C192.275 315.799 189.19 316.701 186.513 319.041C184.496 320.805 182.927 323.767 180.072 324.523C179.067 324.79 178.571 324.01 179.202 323.439C179.544 323.129 180.844 322.667 181.394 322.3C183.136 321.138 184.07 319.367 185.598 318.018C187.912 315.979 191.033 314.706 194.118 314.508V314.51Z" fill="url(#paint15_linear_2003_377)"/>
<path d="M193.796 301.083C197.302 300.922 201.137 301.547 204.428 302.741C204.999 302.95 208.202 304.262 208.379 304.598C208.471 304.774 208.097 305.882 207.751 305.764C202.286 302.673 195.792 301.766 189.622 302.939C188.998 302.84 188.852 301.968 189.445 301.674C190.171 301.315 192.878 301.126 193.796 301.083Z" fill="url(#paint16_linear_2003_377)"/>
<path d="M167.073 296.539C167.032 296.498 167.404 295.594 167.459 295.478C168.458 293.407 171.354 291.751 173.337 290.614C175.737 289.237 181.245 286.582 183.894 286.347C184.569 286.287 185.145 286.363 184.88 287.226C184.756 287.636 182.698 288.027 182.193 288.191C176.356 290.098 172.976 292.38 168.138 295.942C167.992 296.049 167.172 296.638 167.071 296.539H167.073Z" fill="url(#paint17_linear_2003_377)"/>
<path d="M190.893 317.937C191.632 317.831 192.064 318.482 191.566 319.045C191.368 319.269 189.976 319.846 189.531 320.126C187.544 321.374 186.773 323.065 185.121 324.523C183.284 326.145 180.399 327.55 177.962 327.892C177.733 327.924 176.564 328.057 176.465 327.911C176.411 327.832 176.291 326.743 176.413 326.665C176.514 326.601 177.838 326.541 178.162 326.481C182.311 325.699 183.849 323.802 186.461 320.923C187.28 320.021 189.718 318.106 190.895 317.939L190.893 317.937Z" fill="url(#paint18_linear_2003_377)"/>
<path d="M202.815 311.874C202.688 312.001 202.331 312.027 202.153 312.005C201.594 311.936 200.241 311.275 199.513 311.094C195.564 310.106 191.559 310.413 187.804 311.956C187.344 312.145 186.285 312.83 185.911 312.867C185.383 312.918 184.99 312.351 185.248 311.872C185.477 311.442 187.439 310.632 187.991 310.424C191.736 309.015 196.064 308.804 199.942 309.805C200.434 309.932 202.421 310.536 202.726 310.781C202.993 310.993 203.036 311.655 202.815 311.876V311.874Z" fill="url(#paint19_linear_2003_377)"/>
<path d="M208.506 301.616C208.686 301.805 208.677 302.756 208.641 303.04C208.622 303.188 208.699 303.227 208.482 303.197C203.371 300.355 197.437 299.384 191.618 299.867C190.997 299.751 191.007 298.84 191.452 298.634C191.575 298.576 192.277 298.49 192.475 298.475C195.998 298.198 199.979 298.619 203.375 299.603C205.141 300.114 206.83 300.875 208.503 301.616H208.506Z" fill="url(#paint20_linear_2003_377)"/>
<path d="M165.247 306.529C165.124 306.443 165.101 305.096 165.133 304.86C165.247 304.028 168.516 300.851 169.326 300.136C171.213 298.471 173.455 296.857 175.634 295.594C176.113 295.315 177.499 294.442 177.92 294.333C178.719 294.124 179.237 294.859 178.618 295.465C178.135 295.94 176.579 296.608 175.89 297.033C172.482 299.139 169.316 301.676 166.753 304.761C166.368 305.223 165.938 305.988 165.567 306.368C165.494 306.443 165.365 306.615 165.247 306.529Z" fill="url(#paint21_linear_2003_377)"/>
<path d="M200.935 323.314C201.852 322.444 202.933 325.024 203.137 325.621C204.583 329.843 202.92 333.104 200.05 336.124C199.704 336.488 198.153 338.206 197.813 337.065C197.577 336.273 198.649 335.654 199.134 335.102C201.745 332.139 203.47 329.215 201.495 325.219C201.242 324.706 200.337 323.879 200.935 323.312V323.314Z" fill="url(#paint22_linear_2003_377)"/>
<path d="M195.156 333.433C193.257 335.327 191.048 337.02 188.666 338.273C188.221 338.505 186.926 339.222 186.513 339.143C185.933 339.033 185.791 338.329 186.199 337.953C186.55 337.63 188.071 337.048 188.629 336.73C191.373 335.166 195.018 332.23 196.703 329.551C196.836 329.338 196.84 329.009 197.012 328.865C197.459 328.489 198.166 328.773 198.194 329.372C198.239 330.322 195.873 332.717 195.158 333.433H195.156Z" fill="url(#paint23_linear_2003_377)"/>
<path d="M184.554 304.57C180.831 306.278 177.097 308.899 174.594 312.173C174.383 312.448 173.666 313.679 173.578 313.734C172.925 314.158 172.426 313.539 172.575 312.839C172.723 312.138 174.457 310.183 175.017 309.588C176.491 308.031 178.476 306.441 180.294 305.304C181.058 304.825 182.932 303.682 183.718 303.465C184.543 303.238 184.928 303.85 184.554 304.57Z" fill="url(#paint24_linear_2003_377)"/>
<path d="M193.196 318.536C192.898 318.366 192.874 317.619 193.239 317.389C193.491 317.232 194.702 317.152 195.059 317.159C199.001 317.221 203.135 319.776 204.993 323.23C205.311 323.819 206.226 325.426 205.034 325.544C204.353 325.61 203.998 324.227 203.68 323.686C202.045 320.901 198.849 318.798 195.596 318.557C195.158 318.525 193.398 318.652 193.198 318.538L193.196 318.536Z" fill="url(#paint25_linear_2003_377)"/>
<path d="M196.155 304.999C195.905 305.249 194.146 305.1 193.656 305.133C190.184 305.362 186.822 306.275 183.765 307.923C181.606 307.12 184.472 306.024 185.366 305.648C187.578 304.718 190.191 304.063 192.584 303.844C193.362 303.773 194.741 303.646 195.473 303.745C195.645 303.768 196.157 303.923 196.236 304.056C196.35 304.243 196.307 304.847 196.155 304.999Z" fill="url(#paint26_linear_2003_377)"/>
<path d="M166.318 310.503C165.973 310.241 165.625 309.015 165.695 308.652C165.801 308.11 167.096 306.456 167.507 305.945C168.707 304.445 170.278 302.834 171.747 301.592C172.091 301.302 173.447 300.155 173.735 300.037C174.489 299.729 175.105 300.404 174.641 301.051C171.371 303.616 167.986 306.606 166.318 310.506V310.503Z" fill="url(#paint27_linear_2003_377)"/>
<path d="M175.771 338.754C175.829 338.453 175.801 337.456 176.055 337.373C176.405 337.257 177.395 337.392 177.866 337.358C180.968 337.128 184.057 336.114 186.788 334.677C187.37 334.545 187.856 334.958 187.673 335.564C187.57 335.905 186.313 336.453 185.941 336.625C182.805 338.086 179.232 338.786 175.771 338.754Z" fill="url(#paint28_linear_2003_377)"/>
<path d="M208.641 309.429C208.465 309.472 208.392 309.393 208.263 309.324C207.429 308.881 206.667 308.235 205.814 307.799C203.373 306.548 200.675 305.792 197.977 305.324C197.33 304.918 197.497 304.116 198.277 304.052C199.238 303.972 201.994 304.787 203.008 305.126C203.846 305.408 207.59 306.972 208.003 307.543C208.061 307.625 208.712 309.358 208.641 309.427V309.429Z" fill="url(#paint29_linear_2003_377)"/>
<path d="M194.434 311.818C195.091 311.698 196.784 311.908 197.508 312.022C198.788 312.222 200.324 312.669 201.517 313.169C202.108 313.419 204.198 314.458 204.501 314.912C204.866 315.46 204.357 316.072 203.779 315.964C203.534 315.919 201.878 314.828 201.375 314.6C199.119 313.573 196.722 313.152 194.242 313.139C193.579 312.937 193.65 311.962 194.436 311.818H194.434Z" fill="url(#paint30_linear_2003_377)"/>
<path d="M210.695 319.728C209.599 317.733 208.121 315.898 206.329 314.48C205.945 314.175 203.835 312.892 203.755 312.759C203.538 312.398 203.747 311.758 204.189 311.685C204.673 311.605 205.865 312.469 206.312 312.781C208.175 314.078 210.166 316.121 211.328 318.076C212.031 319.258 212.211 319.29 210.695 319.731V319.728Z" fill="url(#paint31_linear_2003_377)"/>
<path d="M168.467 314.478C168.321 314.48 168.259 314.516 168.138 314.407C168.029 314.306 167.195 312.841 167.178 312.697C167.092 312.012 167.747 310.39 168.089 309.751C168.62 308.759 171.013 305.773 171.909 305.195C172.429 304.86 173.013 305.279 172.976 305.826C172.948 306.263 171.857 307.118 171.526 307.498C170.439 308.742 168.467 311.105 168.467 312.817V314.482V314.478Z" fill="url(#paint32_linear_2003_377)"/>
<path d="M177.196 319.498C176.259 318.607 178.259 317.967 178.781 317.541C179.516 316.942 180.021 316.029 180.659 315.337C181.099 314.858 183.112 312.957 183.611 312.806C184.287 312.602 184.732 313.305 184.373 313.898C184.234 314.128 182.923 315.03 182.59 315.337C181.213 316.603 179.933 318.897 178.165 319.505C177.875 319.604 177.456 319.748 177.196 319.503V319.498Z" fill="url(#paint33_linear_2003_377)"/>
<path d="M184.549 329.755C185.159 329.615 185.699 329.948 185.503 330.595C185.379 331.003 184.216 331.493 183.793 331.684C181.808 332.584 179.073 333.265 176.897 333.385C175.952 333.437 176.444 332.691 176.517 332.034C178.682 331.869 180.736 331.454 182.751 330.642C183.2 330.461 184.229 329.828 184.549 329.755Z" fill="url(#paint34_linear_2003_377)"/>
<path d="M189.239 327.946C188.833 328.337 187.555 329.602 187.08 329.71C186.408 329.864 185.942 329.31 186.292 328.704C186.459 328.414 187.903 327.413 188.288 327.048C189.622 325.776 190.986 323.335 192.876 322.925C193.502 322.79 193.961 323.548 193.545 324.034C193.353 324.257 192.387 324.629 191.989 324.949C191.095 325.668 190.159 327.058 189.237 327.946H189.239Z" fill="url(#paint35_linear_2003_377)"/>
<path d="M194.861 327.922C195.246 327.862 195.678 328.324 195.624 328.685C195.534 329.288 192.814 332.04 192.206 332.58C191.77 332.966 189.422 334.833 189.026 334.889C188.33 334.986 187.974 334.264 188.393 333.71C190.249 332.573 191.849 331.095 193.332 329.518C193.675 329.153 194.397 327.995 194.857 327.922H194.861Z" fill="url(#paint36_linear_2003_377)"/>
<path d="M175.26 314.452C174.688 313.881 175.861 312.662 176.252 312.22C177.238 311.103 179.967 308.447 181.243 307.865C181.905 307.562 182.601 307.616 182.429 308.512C182.358 308.888 180.124 310.34 179.636 310.77C178.852 311.459 177.939 312.415 177.219 313.187C176.837 313.597 175.992 315.185 175.26 314.452Z" fill="url(#paint37_linear_2003_377)"/>
<path d="M187.776 294.094C187.965 294.283 187.948 294.868 187.793 295.083C187.656 295.274 185.228 295.845 184.738 296C183.757 296.314 181.864 297.24 181.063 297.373C180.446 297.476 179.879 297.233 180.113 296.533C180.257 296.105 182.111 295.465 182.618 295.276C183.58 294.917 186.541 293.88 187.415 293.968C187.521 293.978 187.703 294.021 187.774 294.092L187.776 294.094Z" fill="url(#paint38_linear_2003_377)"/>
<path d="M195.884 307.685C195.633 307.44 195.71 306.746 196.078 306.585C196.64 306.338 199.382 306.877 200.119 307.051C200.669 307.182 203.027 307.831 203.216 308.248C203.479 308.823 203.079 309.253 202.482 309.206C201.781 309.15 200.333 308.505 199.493 308.319C198.941 308.196 196.045 307.839 195.884 307.685Z" fill="url(#paint39_linear_2003_377)"/>
<path d="M165.354 302.125C165.266 302.032 165.775 299.878 165.949 299.661C166.387 299.111 167.865 297.843 168.467 297.345C168.789 297.076 169.786 296.198 170.125 296.219C170.433 296.238 170.824 296.599 170.824 296.917C170.824 297.411 168.916 298.752 168.467 299.171C167.577 300 166.589 301.263 165.676 301.966C165.569 302.05 165.541 302.174 165.354 302.125Z" fill="url(#paint40_linear_2003_377)"/>
<path d="M194.44 293.027C194.919 293.009 195.465 292.857 195.802 293.319C196.112 293.744 195.959 294.221 195.461 294.367C194.432 294.406 193.396 294.425 192.369 294.498C191.647 294.55 190.534 294.833 189.894 294.823C189.054 294.81 188.87 293.703 189.71 293.45C190.73 293.143 193.282 293.065 194.44 293.025V293.027Z" fill="url(#paint41_linear_2003_377)"/>
<path d="M175.571 340.165C175.679 340.099 177.7 340.082 178.081 340.043C178.686 339.979 180.882 339.506 181.247 339.669C181.589 339.822 181.675 340.378 181.52 340.69C181.38 340.971 180.139 341.132 179.769 341.195C178.605 341.388 176.871 341.573 175.713 341.446C175.582 341.431 175.395 341.437 175.356 341.272C175.344 341.216 175.526 340.198 175.573 340.168L175.571 340.165Z" fill="url(#paint42_linear_2003_377)"/>
<path d="M201.661 336.498C201.629 336.322 201.745 336.21 201.831 336.079C202.338 335.293 203.068 334.586 203.571 333.738C203.856 333.256 204.482 331.572 204.66 331.392C205.029 331.014 205.781 331.261 205.814 331.843C205.852 332.55 203.899 336.191 203.304 336.372C202.928 336.485 202.112 336.365 201.661 336.498Z" fill="url(#paint43_linear_2003_377)"/>
<path d="M213.146 318.231C213.112 318.252 212.886 318.252 212.843 318.225C212.766 318.175 212.104 316.914 211.906 316.637C211.21 315.662 210.409 314.774 209.623 313.872C209.197 313.075 210.11 312.521 210.796 313.129C211.316 313.591 212.774 315.378 213.094 315.986C213.241 316.265 213.475 316.809 213.483 317.112C213.488 317.266 213.195 318.199 213.148 318.229L213.146 318.231Z" fill="url(#paint44_linear_2003_377)"/>
<path d="M208.933 319.342C209.062 319.449 209.687 320.54 209.809 320.775C210.076 321.29 210.843 322.962 210.892 323.458C210.914 323.681 210.918 323.791 210.798 323.991C210.705 324.143 209.829 324.82 209.736 324.392C209.549 323.658 209.292 322.936 208.984 322.246C208.765 321.752 207.829 320.313 207.786 320.001C207.689 319.29 208.443 318.936 208.935 319.344L208.933 319.342Z" fill="url(#paint45_linear_2003_377)"/>
<path d="M183.72 347.347C183.671 347.049 183.782 347.167 183.956 347.105C185.007 346.733 186.122 346.495 187.181 346.134C187.765 345.934 189.581 345.055 190.006 345.081C190.563 345.113 190.795 345.813 190.498 346.228C190.406 346.355 188.105 347.347 187.965 347.347H183.72Z" fill="url(#paint46_linear_2003_377)"/>
<path d="M206.492 296.432L201.259 294.954C200.612 294.629 200.977 293.675 201.601 293.654C202.037 293.639 205.27 294.556 205.584 294.818C205.77 294.975 206.638 296.288 206.494 296.432H206.492Z" fill="url(#paint47_linear_2003_377)"/>
<path d="M175.073 344.125C174.777 344.043 175.129 343.109 175.138 342.847L178.837 342.612C179.666 342.597 179.879 343.762 179 343.97C178.865 344.002 178.167 344.123 178.079 344.123C177.438 344.123 175.529 344.249 175.071 344.123L175.073 344.125Z" fill="url(#paint48_linear_2003_377)"/>
<path d="M199.081 289.235C198.341 289.183 197.506 289.046 196.775 289.016C196.176 288.992 194.06 289.188 193.77 288.799C193.555 288.513 193.568 288.053 193.866 287.832C194.876 287.078 197.867 288.238 198.833 288.891C198.971 288.983 199.128 289.014 199.081 289.233V289.235Z" fill="url(#paint49_linear_2003_377)"/>
<path d="M191.991 347.347L192.062 347.019L196.234 344.66C196.408 344.643 196.415 344.645 196.391 344.815C196.342 345.184 196.311 345.953 196.17 346.204C196.082 346.357 194.535 347.345 194.41 347.345H191.993L191.991 347.347Z" fill="url(#paint50_linear_2003_377)"/>
<path d="M206.138 326.968C206.325 327.198 206.346 329.404 206.276 329.78C206.185 330.266 205.536 330.513 205.145 330.165C204.782 329.843 204.997 328.595 204.995 328.062C204.995 327.813 204.858 327.581 204.898 327.34C204.999 326.758 205.756 326.498 206.138 326.97V326.968Z" fill="url(#paint51_linear_2003_377)"/>
<path d="M207.996 299.762C207.803 299.951 205.592 298.847 205.163 298.782C204.634 298.363 204.873 297.495 205.567 297.512C205.876 297.521 207.401 298.103 207.554 298.322C207.666 298.481 208.095 299.663 207.994 299.76L207.996 299.762Z" fill="url(#paint52_linear_2003_377)"/>
<path d="M207.541 318.534C207.347 318.727 206.883 318.701 206.647 318.564C206.55 318.508 205.195 317.15 205.152 317.054C204.81 316.257 205.515 315.67 206.28 316.248C206.757 316.609 208.162 317.913 207.541 318.534Z" fill="url(#paint53_linear_2003_377)"/>
<path d="M199.807 294.472C199.547 294.732 197.755 294.58 197.356 294.451C196.64 294.219 196.9 293.149 197.635 293.106C197.876 293.091 199.302 293.265 199.536 293.345C199.966 293.489 200.091 294.189 199.805 294.475L199.807 294.472Z" fill="url(#paint54_linear_2003_377)"/>
<path d="M204.419 308.914C205.092 308.707 207.281 309.786 206.391 310.671C205.893 311.169 203.981 310.132 204.024 309.492C204.037 309.294 204.226 308.974 204.419 308.914Z" fill="url(#paint55_linear_2003_377)"/>
<path d="M193.572 343.62C194.574 344.434 192.357 345.627 191.779 345.36C191.568 345.263 191.351 344.905 191.39 344.658C191.474 344.125 193.061 343.205 193.572 343.62Z" fill="url(#paint56_linear_2003_377)"/>
<path d="M177.094 297.86C177.511 297.405 179.243 296.67 179.316 297.781C179.352 298.346 178.022 299.021 177.543 299.021C176.871 299.021 176.691 298.303 177.094 297.86Z" fill="url(#paint57_linear_2003_377)"/>
<path d="M207.534 310.847C207.758 310.778 207.99 310.811 208.207 310.886C208.566 311.01 209.44 311.816 209.373 312.254C209.165 313.618 207.092 312.128 207.139 311.425C207.152 311.227 207.341 310.907 207.534 310.847Z" fill="url(#paint58_linear_2003_377)"/>
<path d="M184.339 338.672C184.601 338.655 184.919 338.745 185.041 338.995C185.57 340.067 183.267 340.683 182.854 340.105C182.236 339.237 183.707 338.711 184.339 338.672Z" fill="url(#paint59_linear_2003_377)"/>
<path d="M186.915 302.258C187.155 302.219 187.568 302.155 187.75 302.335C187.963 302.546 187.961 303.105 187.793 303.349C187.608 303.616 186.212 303.962 185.866 303.788C185.563 303.635 185.51 303.036 185.714 302.772C185.853 302.591 186.672 302.292 186.915 302.254V302.258Z" fill="url(#paint60_linear_2003_377)"/>
<path d="M175.503 323.931H177.329C177.404 323.931 177.773 324.405 177.795 324.545C177.915 325.314 176.558 325.471 176.057 325.31C175.993 325.288 175.359 324.255 175.35 324.188C175.329 324.049 175.421 324.016 175.503 323.931Z" fill="url(#paint61_linear_2003_377)"/>
<path d="M190.273 286.335C190.363 286.62 189.946 286.592 189.759 286.625C188.773 286.796 187.755 286.837 186.779 287.087C186.348 287.08 186.101 286.807 186.081 286.388C186.07 286.163 186.081 286.249 186.242 286.225C187.473 286.042 189.02 286.378 190.273 286.335Z" fill="url(#paint62_linear_2003_377)"/>
<path d="M196.932 341.01C196.741 341.416 196.924 342.696 196.365 342.6C195.398 342.43 196.079 340.917 196.932 341.01Z" fill="url(#paint63_linear_2003_377)"/>
<path d="M209.932 325.005C210.286 324.972 210.705 325.54 210.77 325.834C210.922 326.521 210.291 327.374 210.149 326.665C210.046 326.148 210.065 325.533 209.93 325.005H209.932Z" fill="url(#paint64_linear_2003_377)"/>
<path d="M176.931 330.352C176.912 330.397 176.54 330.687 176.418 330.59C176.446 330.363 176.31 329.467 176.581 329.409C176.852 329.351 176.964 330.277 176.933 330.352H176.931Z" fill="url(#paint65_linear_2003_377)"/>
<path d="M206.793 275.953C206.793 276.479 207.22 276.906 207.746 276.906H218.785C221.347 276.906 223.675 277.958 225.359 279.641C227.045 281.325 228.094 283.653 228.094 286.214V297.026C228.094 297.552 228.521 297.979 229.047 297.979C229.573 297.979 230 297.552 230 297.026V286.214C230 283.132 228.741 280.329 226.706 278.294C224.671 276.259 221.868 275 218.785 275H207.746C207.22 275 206.793 275.427 206.793 275.953Z" fill="url(#paint66_linear_2003_377)"/>
<path d="M167.813 357.092C168.339 357.092 168.766 357.519 168.766 358.045C168.766 358.571 168.339 358.998 167.813 358.998H157.215C154.132 358.998 151.329 357.739 149.294 355.704C147.259 353.669 146 350.866 146 347.784V337.165C146 336.639 146.427 336.212 146.953 336.212C147.479 336.212 147.906 336.639 147.906 337.165V347.784C147.906 350.345 148.955 352.673 150.641 354.357C152.325 356.04 154.653 357.092 157.215 357.092H167.813Z" fill="url(#paint67_linear_2003_377)"/>
<path d="M146.953 297.804C147.479 297.804 147.906 297.377 147.906 296.851V286.214C147.906 283.653 148.958 281.325 150.641 279.642C152.325 277.956 154.653 276.906 157.215 276.906H168.127C168.653 276.906 169.08 276.479 169.08 275.953C169.08 275.427 168.653 275 168.127 275H157.215C154.132 275 151.329 276.259 149.294 278.294C147.259 280.329 146 283.132 146 286.214V296.851C146 297.377 146.427 297.804 146.953 297.804Z" fill="url(#paint68_linear_2003_377)"/>
<path d="M207.222 358.047C207.222 357.521 207.649 357.094 208.175 357.094H218.773C221.335 357.094 223.663 356.042 225.346 354.359C227.032 352.675 228.082 350.347 228.082 347.786V337.167C228.082 336.641 228.509 336.214 229.035 336.214C229.561 336.214 229.988 336.641 229.988 337.167V347.786C229.988 350.868 228.728 353.671 226.694 355.706C224.659 357.741 221.856 359 218.773 359H208.175C207.649 359 207.222 358.573 207.222 358.047Z" fill="url(#paint69_linear_2003_377)"/>
<defs>
<filter id="filter0_f_2003_377" x="-129" y="0" width="634" height="634" filterUnits="userSpaceOnUse" color-interpolation-filters="sRGB">
<feFlood flood-opacity="0" result="BackgroundImageFix"/>
<feBlend mode="normal" in="SourceGraphic" in2="BackgroundImageFix" result="shape"/>
<feGaussianBlur stdDeviation="87" result="effect1_foregroundBlur_2003_377"/>
</filter>
<radialGradient id="paint0_radial_2003_377" cx="0" cy="0" r="1" gradientUnits="userSpaceOnUse" gradientTransform="translate(188.22 316.341) rotate(90) scale(240.53)">
<stop stop-color="#1656D0" stop-opacity="0.5"/>
<stop offset="0.36179" stop-color="#2150AA" stop-opacity="0.4"/>
<stop offset="0.919075" stop-color="#323439" stop-opacity="0.1"/>
</radialGradient>
<linearGradient id="paint1_linear_2003_377" x1="293" y1="179.966" x2="96.7594" y2="181.49" gradientUnits="userSpaceOnUse">
<stop stop-color="#CDFF00"/>
<stop offset="1" stop-color="#1465FF"/>
</linearGradient>
<linearGradient id="paint2_linear_2003_377" x1="264.593" y1="224.396" x2="100.156" y2="405.276" gradientUnits="userSpaceOnUse">
<stop stop-color="#CDFF00"/>
<stop offset="0.627264" stop-color="#1465FF"/>
</linearGradient>
<linearGradient id="paint3_linear_2003_377" x1="273.604" y1="213.502" x2="89.8218" y2="415.662" gradientUnits="userSpaceOnUse">
<stop stop-color="#CDFF00"/>
<stop offset="0.627264" stop-color="#1465FF"/>
</linearGradient>
<linearGradient id="paint4_linear_2003_377" x1="199.493" y1="288.32" x2="148.535" y2="343.539" gradientUnits="userSpaceOnUse">
<stop stop-color="#CDFF00"/>
<stop offset="0.63" stop-color="#1465FF"/>
</linearGradient>
<linearGradient id="paint5_linear_2003_377" x1="199.493" y1="288.32" x2="148.535" y2="343.539" gradientUnits="userSpaceOnUse">
<stop stop-color="#CDFF00"/>
<stop offset="0.63" stop-color="#1465FF"/>
</linearGradient>
<linearGradient id="paint6_linear_2003_377" x1="199.493" y1="288.32" x2="148.535" y2="343.539" gradientUnits="userSpaceOnUse">
<stop stop-color="#CDFF00"/>
<stop offset="0.63" stop-color="#1465FF"/>
</linearGradient>
<linearGradient id="paint7_linear_2003_377" x1="199.493" y1="288.32" x2="148.535" y2="343.539" gradientUnits="userSpaceOnUse">
<stop stop-color="#CDFF00"/>
<stop offset="0.63" stop-color="#1465FF"/>
</linearGradient>
<linearGradient id="paint8_linear_2003_377" x1="199.493" y1="288.32" x2="148.535" y2="343.539" gradientUnits="userSpaceOnUse">
<stop stop-color="#CDFF00"/>
<stop offset="0.63" stop-color="#1465FF"/>
</linearGradient>
<linearGradient id="paint9_linear_2003_377" x1="199.493" y1="288.32" x2="148.535" y2="343.539" gradientUnits="userSpaceOnUse">
<stop stop-color="#CDFF00"/>
<stop offset="0.63" stop-color="#1465FF"/>
</linearGradient>
<linearGradient id="paint10_linear_2003_377" x1="199.493" y1="288.32" x2="148.535" y2="343.539" gradientUnits="userSpaceOnUse">
<stop stop-color="#CDFF00"/>
<stop offset="0.63" stop-color="#1465FF"/>
</linearGradient>
<linearGradient id="paint11_linear_2003_377" x1="199.493" y1="288.32" x2="148.535" y2="343.539" gradientUnits="userSpaceOnUse">
<stop stop-color="#CDFF00"/>
<stop offset="0.63" stop-color="#1465FF"/>
</linearGradient>
<linearGradient id="paint12_linear_2003_377" x1="199.493" y1="288.32" x2="148.535" y2="343.539" gradientUnits="userSpaceOnUse">
<stop stop-color="#CDFF00"/>
<stop offset="0.63" stop-color="#1465FF"/>
</linearGradient>
<linearGradient id="paint13_linear_2003_377" x1="199.493" y1="288.32" x2="148.535" y2="343.539" gradientUnits="userSpaceOnUse">
<stop stop-color="#CDFF00"/>
<stop offset="0.63" stop-color="#1465FF"/>
</linearGradient>
<linearGradient id="paint14_linear_2003_377" x1="199.493" y1="288.32" x2="148.535" y2="343.539" gradientUnits="userSpaceOnUse">
<stop stop-color="#CDFF00"/>
<stop offset="0.63" stop-color="#1465FF"/>
</linearGradient>
<linearGradient id="paint15_linear_2003_377" x1="199.493" y1="288.32" x2="148.535" y2="343.539" gradientUnits="userSpaceOnUse">
<stop stop-color="#CDFF00"/>
<stop offset="0.63" stop-color="#1465FF"/>
</linearGradient>
<linearGradient id="paint16_linear_2003_377" x1="199.493" y1="288.32" x2="148.535" y2="343.539" gradientUnits="userSpaceOnUse">
<stop stop-color="#CDFF00"/>
<stop offset="0.63" stop-color="#1465FF"/>
</linearGradient>
<linearGradient id="paint17_linear_2003_377" x1="199.493" y1="288.32" x2="148.535" y2="343.539" gradientUnits="userSpaceOnUse">
<stop stop-color="#CDFF00"/>
<stop offset="0.63" stop-color="#1465FF"/>
</linearGradient>
<linearGradient id="paint18_linear_2003_377" x1="199.493" y1="288.32" x2="148.535" y2="343.539" gradientUnits="userSpaceOnUse">
<stop stop-color="#CDFF00"/>
<stop offset="0.63" stop-color="#1465FF"/>
</linearGradient>
<linearGradient id="paint19_linear_2003_377" x1="199.493" y1="288.32" x2="148.535" y2="343.539" gradientUnits="userSpaceOnUse">
<stop stop-color="#CDFF00"/>
<stop offset="0.63" stop-color="#1465FF"/>
</linearGradient>
<linearGradient id="paint20_linear_2003_377" x1="199.493" y1="288.32" x2="148.535" y2="343.539" gradientUnits="userSpaceOnUse">
<stop stop-color="#CDFF00"/>
<stop offset="0.63" stop-color="#1465FF"/>
</linearGradient>
<linearGradient id="paint21_linear_2003_377" x1="199.493" y1="288.32" x2="148.535" y2="343.539" gradientUnits="userSpaceOnUse">
<stop stop-color="#CDFF00"/>
<stop offset="0.63" stop-color="#1465FF"/>
</linearGradient>
<linearGradient id="paint22_linear_2003_377" x1="199.493" y1="288.32" x2="148.535" y2="343.539" gradientUnits="userSpaceOnUse">
<stop stop-color="#CDFF00"/>
<stop offset="0.63" stop-color="#1465FF"/>
</linearGradient>
<linearGradient id="paint23_linear_2003_377" x1="199.493" y1="288.32" x2="148.535" y2="343.539" gradientUnits="userSpaceOnUse">
<stop stop-color="#CDFF00"/>
<stop offset="0.63" stop-color="#1465FF"/>
</linearGradient>
<linearGradient id="paint24_linear_2003_377" x1="199.493" y1="288.32" x2="148.535" y2="343.539" gradientUnits="userSpaceOnUse">
<stop stop-color="#CDFF00"/>
<stop offset="0.63" stop-color="#1465FF"/>
</linearGradient>
<linearGradient id="paint25_linear_2003_377" x1="199.493" y1="288.32" x2="148.535" y2="343.539" gradientUnits="userSpaceOnUse">
<stop stop-color="#CDFF00"/>
<stop offset="0.63" stop-color="#1465FF"/>
</linearGradient>
<linearGradient id="paint26_linear_2003_377" x1="199.493" y1="288.32" x2="148.535" y2="343.539" gradientUnits="userSpaceOnUse">
<stop stop-color="#CDFF00"/>
<stop offset="0.63" stop-color="#1465FF"/>
</linearGradient>
<linearGradient id="paint27_linear_2003_377" x1="199.493" y1="288.32" x2="148.535" y2="343.539" gradientUnits="userSpaceOnUse">
<stop stop-color="#CDFF00"/>
<stop offset="0.63" stop-color="#1465FF"/>
</linearGradient>
<linearGradient id="paint28_linear_2003_377" x1="199.493" y1="288.32" x2="148.535" y2="343.539" gradientUnits="userSpaceOnUse">
<stop stop-color="#CDFF00"/>
<stop offset="0.63" stop-color="#1465FF"/>
</linearGradient>
<linearGradient id="paint29_linear_2003_377" x1="199.493" y1="288.32" x2="148.535" y2="343.539" gradientUnits="userSpaceOnUse">
<stop stop-color="#CDFF00"/>
<stop offset="0.63" stop-color="#1465FF"/>
</linearGradient>
<linearGradient id="paint30_linear_2003_377" x1="199.493" y1="288.32" x2="148.535" y2="343.539" gradientUnits="userSpaceOnUse">
<stop stop-color="#CDFF00"/>
<stop offset="0.63" stop-color="#1465FF"/>
</linearGradient>
<linearGradient id="paint31_linear_2003_377" x1="199.493" y1="288.32" x2="148.535" y2="343.539" gradientUnits="userSpaceOnUse">
<stop stop-color="#CDFF00"/>
<stop offset="0.63" stop-color="#1465FF"/>
</linearGradient>
<linearGradient id="paint32_linear_2003_377" x1="199.493" y1="288.32" x2="148.535" y2="343.539" gradientUnits="userSpaceOnUse">
<stop stop-color="#CDFF00"/>
<stop offset="0.63" stop-color="#1465FF"/>
</linearGradient>
<linearGradient id="paint33_linear_2003_377" x1="199.493" y1="288.32" x2="148.535" y2="343.539" gradientUnits="userSpaceOnUse">
<stop stop-color="#CDFF00"/>
<stop offset="0.63" stop-color="#1465FF"/>
</linearGradient>
<linearGradient id="paint34_linear_2003_377" x1="199.493" y1="288.32" x2="148.535" y2="343.539" gradientUnits="userSpaceOnUse">
<stop stop-color="#CDFF00"/>
<stop offset="0.63" stop-color="#1465FF"/>
</linearGradient>
<linearGradient id="paint35_linear_2003_377" x1="199.493" y1="288.32" x2="148.535" y2="343.539" gradientUnits="userSpaceOnUse">
<stop stop-color="#CDFF00"/>
<stop offset="0.63" stop-color="#1465FF"/>
</linearGradient>
<linearGradient id="paint36_linear_2003_377" x1="199.493" y1="288.32" x2="148.535" y2="343.539" gradientUnits="userSpaceOnUse">
<stop stop-color="#CDFF00"/>
<stop offset="0.63" stop-color="#1465FF"/>
</linearGradient>
<linearGradient id="paint37_linear_2003_377" x1="199.493" y1="288.32" x2="148.535" y2="343.539" gradientUnits="userSpaceOnUse">
<stop stop-color="#CDFF00"/>
<stop offset="0.63" stop-color="#1465FF"/>
</linearGradient>
<linearGradient id="paint38_linear_2003_377" x1="199.493" y1="288.32" x2="148.535" y2="343.539" gradientUnits="userSpaceOnUse">
<stop stop-color="#CDFF00"/>
<stop offset="0.63" stop-color="#1465FF"/>
</linearGradient>
<linearGradient id="paint39_linear_2003_377" x1="199.493" y1="288.32" x2="148.535" y2="343.539" gradientUnits="userSpaceOnUse">
<stop stop-color="#CDFF00"/>
<stop offset="0.63" stop-color="#1465FF"/>
</linearGradient>
<linearGradient id="paint40_linear_2003_377" x1="199.493" y1="288.32" x2="148.535" y2="343.539" gradientUnits="userSpaceOnUse">
<stop stop-color="#CDFF00"/>
<stop offset="0.63" stop-color="#1465FF"/>
</linearGradient>
<linearGradient id="paint41_linear_2003_377" x1="199.493" y1="288.32" x2="148.535" y2="343.539" gradientUnits="userSpaceOnUse">
<stop stop-color="#CDFF00"/>
<stop offset="0.63" stop-color="#1465FF"/>
</linearGradient>
<linearGradient id="paint42_linear_2003_377" x1="199.493" y1="288.32" x2="148.535" y2="343.539" gradientUnits="userSpaceOnUse">
<stop stop-color="#CDFF00"/>
<stop offset="0.63" stop-color="#1465FF"/>
</linearGradient>
<linearGradient id="paint43_linear_2003_377" x1="199.493" y1="288.32" x2="148.535" y2="343.539" gradientUnits="userSpaceOnUse">
<stop stop-color="#CDFF00"/>
<stop offset="0.63" stop-color="#1465FF"/>
</linearGradient>
<linearGradient id="paint44_linear_2003_377" x1="199.493" y1="288.32" x2="148.535" y2="343.539" gradientUnits="userSpaceOnUse">
<stop stop-color="#CDFF00"/>
<stop offset="0.63" stop-color="#1465FF"/>
</linearGradient>
<linearGradient id="paint45_linear_2003_377" x1="199.493" y1="288.32" x2="148.535" y2="343.539" gradientUnits="userSpaceOnUse">
<stop stop-color="#CDFF00"/>
<stop offset="0.63" stop-color="#1465FF"/>
</linearGradient>
<linearGradient id="paint46_linear_2003_377" x1="199.493" y1="288.32" x2="148.535" y2="343.539" gradientUnits="userSpaceOnUse">
<stop stop-color="#CDFF00"/>
<stop offset="0.63" stop-color="#1465FF"/>
</linearGradient>
<linearGradient id="paint47_linear_2003_377" x1="199.493" y1="288.32" x2="148.535" y2="343.539" gradientUnits="userSpaceOnUse">
<stop stop-color="#CDFF00"/>
<stop offset="0.63" stop-color="#1465FF"/>
</linearGradient>
<linearGradient id="paint48_linear_2003_377" x1="199.493" y1="288.32" x2="148.535" y2="343.539" gradientUnits="userSpaceOnUse">
<stop stop-color="#CDFF00"/>
<stop offset="0.63" stop-color="#1465FF"/>
</linearGradient>
<linearGradient id="paint49_linear_2003_377" x1="199.493" y1="288.32" x2="148.535" y2="343.539" gradientUnits="userSpaceOnUse">
<stop stop-color="#CDFF00"/>
<stop offset="0.63" stop-color="#1465FF"/>
</linearGradient>
<linearGradient id="paint50_linear_2003_377" x1="199.493" y1="288.32" x2="148.535" y2="343.539" gradientUnits="userSpaceOnUse">
<stop stop-color="#CDFF00"/>
<stop offset="0.63" stop-color="#1465FF"/>
</linearGradient>
<linearGradient id="paint51_linear_2003_377" x1="199.493" y1="288.32" x2="148.535" y2="343.539" gradientUnits="userSpaceOnUse">
<stop stop-color="#CDFF00"/>
<stop offset="0.63" stop-color="#1465FF"/>
</linearGradient>
<linearGradient id="paint52_linear_2003_377" x1="199.493" y1="288.32" x2="148.535" y2="343.539" gradientUnits="userSpaceOnUse">
<stop stop-color="#CDFF00"/>
<stop offset="0.63" stop-color="#1465FF"/>
</linearGradient>
<linearGradient id="paint53_linear_2003_377" x1="199.493" y1="288.32" x2="148.535" y2="343.539" gradientUnits="userSpaceOnUse">
<stop stop-color="#CDFF00"/>
<stop offset="0.63" stop-color="#1465FF"/>
</linearGradient>
<linearGradient id="paint54_linear_2003_377" x1="199.493" y1="288.32" x2="148.535" y2="343.539" gradientUnits="userSpaceOnUse">
<stop stop-color="#CDFF00"/>
<stop offset="0.63" stop-color="#1465FF"/>
</linearGradient>
<linearGradient id="paint55_linear_2003_377" x1="199.493" y1="288.32" x2="148.535" y2="343.539" gradientUnits="userSpaceOnUse">
<stop stop-color="#CDFF00"/>
<stop offset="0.63" stop-color="#1465FF"/>
</linearGradient>
<linearGradient id="paint56_linear_2003_377" x1="199.493" y1="288.32" x2="148.535" y2="343.539" gradientUnits="userSpaceOnUse">
<stop stop-color="#CDFF00"/>
<stop offset="0.63" stop-color="#1465FF"/>
</linearGradient>
<linearGradient id="paint57_linear_2003_377" x1="199.493" y1="288.32" x2="148.535" y2="343.539" gradientUnits="userSpaceOnUse">
<stop stop-color="#CDFF00"/>
<stop offset="0.63" stop-color="#1465FF"/>
</linearGradient>
<linearGradient id="paint58_linear_2003_377" x1="199.493" y1="288.32" x2="148.535" y2="343.539" gradientUnits="userSpaceOnUse">
<stop stop-color="#CDFF00"/>
<stop offset="0.63" stop-color="#1465FF"/>
</linearGradient>
<linearGradient id="paint59_linear_2003_377" x1="199.493" y1="288.32" x2="148.535" y2="343.539" gradientUnits="userSpaceOnUse">
<stop stop-color="#CDFF00"/>
<stop offset="0.63" stop-color="#1465FF"/>
</linearGradient>
<linearGradient id="paint60_linear_2003_377" x1="199.493" y1="288.32" x2="148.535" y2="343.539" gradientUnits="userSpaceOnUse">
<stop stop-color="#CDFF00"/>
<stop offset="0.63" stop-color="#1465FF"/>
</linearGradient>
<linearGradient id="paint61_linear_2003_377" x1="199.493" y1="288.32" x2="148.535" y2="343.539" gradientUnits="userSpaceOnUse">
<stop stop-color="#CDFF00"/>
<stop offset="0.63" stop-color="#1465FF"/>
</linearGradient>
<linearGradient id="paint62_linear_2003_377" x1="199.493" y1="288.32" x2="148.535" y2="343.539" gradientUnits="userSpaceOnUse">
<stop stop-color="#CDFF00"/>
<stop offset="0.63" stop-color="#1465FF"/>
</linearGradient>
<linearGradient id="paint63_linear_2003_377" x1="199.493" y1="288.32" x2="148.535" y2="343.539" gradientUnits="userSpaceOnUse">
<stop stop-color="#CDFF00"/>
<stop offset="0.63" stop-color="#1465FF"/>
</linearGradient>
<linearGradient id="paint64_linear_2003_377" x1="199.493" y1="288.32" x2="148.535" y2="343.539" gradientUnits="userSpaceOnUse">
<stop stop-color="#CDFF00"/>
<stop offset="0.63" stop-color="#1465FF"/>
</linearGradient>
<linearGradient id="paint65_linear_2003_377" x1="199.493" y1="288.32" x2="148.535" y2="343.539" gradientUnits="userSpaceOnUse">
<stop stop-color="#CDFF00"/>
<stop offset="0.63" stop-color="#1465FF"/>
</linearGradient>
<linearGradient id="paint66_linear_2003_377" x1="160.245" y1="283.462" x2="219.8" y2="348.974" gradientUnits="userSpaceOnUse">
<stop stop-color="#CDFF00"/>
<stop offset="0.627264" stop-color="#347AFF"/>
</linearGradient>
<linearGradient id="paint67_linear_2003_377" x1="160.245" y1="283.462" x2="219.8" y2="348.974" gradientUnits="userSpaceOnUse">
<stop stop-color="#CDFF00"/>
<stop offset="0.627264" stop-color="#347AFF"/>
</linearGradient>
<linearGradient id="paint68_linear_2003_377" x1="160.245" y1="283.462" x2="219.8" y2="348.974" gradientUnits="userSpaceOnUse">
<stop stop-color="#CDFF00"/>
<stop offset="0.627264" stop-color="#347AFF"/>
</linearGradient>
<linearGradient id="paint69_linear_2003_377" x1="160.245" y1="283.462" x2="219.8" y2="348.974" gradientUnits="userSpaceOnUse">
<stop stop-color="#CDFF00"/>
<stop offset="0.627264" stop-color="#347AFF"/>
</linearGradient>
</defs>
</svg>
